<svg id="svg" class="path" style="background-color: rgb(109, 233, 119);">
<path fill="#65e579" stroke="#65e579" d="M -0 388 L 0 0 C 72.08333333333333 0, 100.91666666666667 -23, 173 -23 C 245.08333333333331 -23, 273.9166666666667 23, 346 23 C 418.0833333333333 23, 446.9166666666667 -23, 519 -23 C 591.0833333333334 -23, 619.9166666666666 23, 692 23 L 528 0 L 528 388 Z"></path>
<path fill="#5ce27a" stroke="#5ce27a" d="M -0 388 L 0 8 C 72.08333333333333 8, 100.91666666666667 -15, 173 -15 C 245.08333333333331 -15, 273.9166666666667 31, 346 31 C 418.0833333333333 31, 446.9166666666667 -15, 519 -15 C 591.0833333333334 -15, 619.9166666666666 31, 692 31 L 528 8 L 528 388 Z"></path>
<path fill="#53de7c" stroke="#53de7c" d="M -0 388 L 0 16 C 72.08333333333333 16, 100.91666666666667 -7, 173 -7 C 245.08333333333331 -7, 273.9166666666667 39, 346 39 C 418.0833333333333 39, 446.9166666666667 -7, 519 -7 C 591.0833333333334 -7, 619.9166666666666 39, 692 39 L 528 16 L 528 388 Z"></path>
<path fill="#4ada7d" stroke="#4ada7d" d="M -0 388 L 0 25 C 72.08333333333333 25, 100.91666666666667 2, 173 2 C 245.08333333333331 2, 273.9166666666667 48, 346 48 C 418.0833333333333 48, 446.9166666666667 2, 519 2 C 591.0833333333334 2, 619.9166666666666 48, 692 48 L 528 25 L 528 388 Z"></path>
<path fill="#41d67e" stroke="#41d67e" d="M -0 388 L 0 33 C 72.08333333333333 33, 100.91666666666667 10, 173 10 C 245.08333333333331 10, 273.9166666666667 56, 346 56 C 418.0833333333333 56, 446.9166666666667 10, 519 10 C 591.0833333333334 10, 619.9166666666666 56, 692 56 L 528 33 L 528 388 Z"></path>
<path fill="#37d27f" stroke="#37d27f" d="M -0 388 L 0 42 C 72.08333333333333 42, 100.91666666666667 19, 173 19 C 245.08333333333331 19, 273.9166666666667 65, 346 65 C 418.0833333333333 65, 446.9166666666667 19, 519 19 C 591.0833333333334 19, 619.9166666666666 65, 692 65 L 528 42 L 528 388 Z"></path>
<path fill="#2cce80" stroke="#2cce80" d="M -0 388 L 0 50 C 72.08333333333333 50, 100.91666666666667 27, 173 27 C 245.08333333333331 27, 273.9166666666667 73, 346 73 C 418.0833333333333 73, 446.9166666666667 27, 519 27 C 591.0833333333334 27, 619.9166666666666 73, 692 73 L 528 50 L 528 388 Z"></path>
<path fill="#1fca81" stroke="#1fca81" d="M -0 388 L 0 59 C 72.08333333333333 59, 100.91666666666667 36, 173 36 C 245.08333333333331 36, 273.9166666666667 82, 346 82 C 418.0833333333333 82, 446.9166666666667 36, 519 36 C 591.0833333333334 36, 619.9166666666666 82, 692 82 L 528 59 L 528 388 Z"></path>
<path fill="#0ac682" stroke="#0ac682" d="M -0 388 L 0 67 C 72.08333333333333 67, 100.91666666666667 44, 173 44 C 245.08333333333331 44, 273.9166666666667 90, 346 90 C 418.0833333333333 90, 446.9166666666667 44, 519 44 C 591.0833333333334 44, 619.9166666666666 90, 692 90 L 528 67 L 528 388 Z"></path>
<path fill="#00c383" stroke="#00c383" d="M -0 388 L 0 75 C 72.08333333333333 75, 100.91666666666667 52, 173 52 C 245.08333333333331 52, 273.9166666666667 98, 346 98 C 418.0833333333333 98, 446.9166666666667 52, 519 52 C 591.0833333333334 52, 619.9166666666666 98, 692 98 L 528 75 L 528 388 Z"></path>
<path fill="#00bf83" stroke="#00bf83" d="M -0 388 L 0 84 C 72.08333333333333 84, 100.91666666666667 61, 173 61 C 245.08333333333331 61, 273.9166666666667 107, 346 107 C 418.0833333333333 107, 446.9166666666667 61, 519 61 C 591.0833333333334 61, 619.9166666666666 107, 692 107 L 528 84 L 528 388 Z"></path>
<path fill="#00bb84" stroke="#00bb84" d="M -0 388 L 0 92 C 72.08333333333333 92, 100.91666666666667 69, 173 69 C 245.08333333333331 69, 273.9166666666667 115, 346 115 C 418.0833333333333 115, 446.9166666666667 69, 519 69 C 591.0833333333334 69, 619.9166666666666 115, 692 115 L 528 92 L 528 388 Z"></path>
<path fill="#00b784" stroke="#00b784" d="M -0 388 L 0 101 C 72.08333333333333 101, 100.91666666666667 78, 173 78 C 245.08333333333331 78, 273.9166666666667 124, 346 124 C 418.0833333333333 124, 446.9166666666667 78, 519 78 C 591.0833333333334 78, 619.9166666666666 124, 692 124 L 528 101 L 528 388 Z"></path>
<path fill="#00b384" stroke="#00b384" d="M -0 388 L 0 109 C 72.08333333333333 109, 100.91666666666667 86, 173 86 C 245.08333333333331 86, 273.9166666666667 132, 346 132 C 418.0833333333333 132, 446.9166666666667 86, 519 86 C 591.0833333333334 86, 619.9166666666666 132, 692 132 L 528 109 L 528 388 Z"></path>
<path fill="#00af84" stroke="#00af84" d="M -0 388 L 0 118 C 72.08333333333333 118, 100.91666666666667 95, 173 95 C 245.08333333333331 95, 273.9166666666667 141, 346 141 C 418.0833333333333 141, 446.9166666666667 95, 519 95 C 591.0833333333334 95, 619.9166666666666 141, 692 141 L 528 118 L 528 388 Z"></path>
<path fill="#00ab84" stroke="#00ab84" d="M -0 388 L 0 126 C 72.08333333333333 126, 100.91666666666667 103, 173 103 C 245.08333333333331 103, 273.9166666666667 149, 346 149 C 418.0833333333333 149, 446.9166666666667 103, 519 103 C 591.0833333333334 103, 619.9166666666666 149, 692 149 L 528 126 L 528 388 Z"></path>
<path fill="#00a784" stroke="#00a784" d="M -0 388 L 0 134 C 72.08333333333333 134, 100.91666666666667 111, 173 111 C 245.08333333333331 111, 273.9166666666667 157, 346 157 C 418.0833333333333 157, 446.9166666666667 111, 519 111 C 591.0833333333334 111, 619.9166666666666 157, 692 157 L 528 134 L 528 388 Z"></path>
<path fill="#00a383" stroke="#00a383" d="M -0 388 L 0 143 C 72.08333333333333 143, 100.91666666666667 120, 173 120 C 245.08333333333331 120, 273.9166666666667 166, 346 166 C 418.0833333333333 166, 446.9166666666667 120, 519 120 C 591.0833333333334 120, 619.9166666666666 166, 692 166 L 528 143 L 528 388 Z"></path>
<path fill="#009f83" stroke="#009f83" d="M -0 388 L 0 151 C 72.08333333333333 151, 100.91666666666667 128, 173 128 C 245.08333333333331 128, 273.9166666666667 174, 346 174 C 418.0833333333333 174, 446.9166666666667 128, 519 128 C 591.0833333333334 128, 619.9166666666666 174, 692 174 L 528 151 L 528 388 Z"></path>
<path fill="#009b82" stroke="#009b82" d="M -0 388 L 0 160 C 72.08333333333333 160, 100.91666666666667 137, 173 137 C 245.08333333333331 137, 273.9166666666667 183, 346 183 C 418.0833333333333 183, 446.9166666666667 137, 519 137 C 591.0833333333334 137, 619.9166666666666 183, 692 183 L 528 160 L 528 388 Z"></path>
<path fill="#009781" stroke="#009781" d="M -0 388 L 0 168 C 72.08333333333333 168, 100.91666666666667 145, 173 145 C 245.08333333333331 145, 273.9166666666667 191, 346 191 C 418.0833333333333 191, 446.9166666666667 145, 519 145 C 591.0833333333334 145, 619.9166666666666 191, 692 191 L 528 168 L 528 388 Z"></path>
<path fill="#009380" stroke="#009380" d="M -0 388 L 0 177 C 72.08333333333333 177, 100.91666666666667 154, 173 154 C 245.08333333333331 154, 273.9166666666667 200, 346 200 C 418.0833333333333 200, 446.9166666666667 154, 519 154 C 591.0833333333334 154, 619.9166666666666 200, 692 200 L 528 177 L 528 388 Z"></path>
<path fill="#008f7f" stroke="#008f7f" d="M -0 388 L 0 185 C 72.08333333333333 185, 100.91666666666667 162, 173 162 C 245.08333333333331 162, 273.9166666666667 208, 346 208 C 418.0833333333333 208, 446.9166666666667 162, 519 162 C 591.0833333333334 162, 619.9166666666666 208, 692 208 L 528 185 L 528 388 Z"></path>
<path fill="#008b7e" stroke="#008b7e" d="M -0 388 L 0 194 C 72.08333333333333 194, 100.91666666666667 171, 173 171 C 245.08333333333331 171, 273.9166666666667 217, 346 217 C 418.0833333333333 217, 446.9166666666667 171, 519 171 C 591.0833333333334 171, 619.9166666666666 217, 692 217 L 528 194 L 528 388 Z"></path>
<path fill="#00877c" stroke="#00877c" d="M -0 388 L 0 202 C 72.08333333333333 202, 100.91666666666667 179, 173 179 C 245.08333333333331 179, 273.9166666666667 225, 346 225 C 418.0833333333333 225, 446.9166666666667 179, 519 179 C 591.0833333333334 179, 619.9166666666666 225, 692 225 L 528 202 L 528 388 Z"></path>
<path fill="#00837b" stroke="#00837b" d="M -0 388 L 0 210 C 72.08333333333333 210, 100.91666666666667 187, 173 187 C 245.08333333333331 187, 273.9166666666667 233, 346 233 C 418.0833333333333 233, 446.9166666666667 187, 519 187 C 591.0833333333334 187, 619.9166666666666 233, 692 233 L 528 210 L 528 388 Z"></path>
<path fill="#007f79" stroke="#007f79" d="M -0 388 L 0 219 C 72.08333333333333 219, 100.91666666666667 196, 173 196 C 245.08333333333331 196, 273.9166666666667 242, 346 242 C 418.0833333333333 242, 446.9166666666667 196, 519 196 C 591.0833333333334 196, 619.9166666666666 242, 692 242 L 528 219 L 528 388 Z"></path>
<path fill="#007b77" stroke="#007b77" d="M -0 388 L 0 227 C 72.08333333333333 227, 100.91666666666667 204, 173 204 C 245.08333333333331 204, 273.9166666666667 250, 346 250 C 418.0833333333333 250, 446.9166666666667 204, 519 204 C 591.0833333333334 204, 619.9166666666666 250, 692 250 L 528 227 L 528 388 Z"></path>
<path fill="#007775" stroke="#007775" d="M -0 388 L 0 236 C 72.08333333333333 236, 100.91666666666667 213, 173 213 C 245.08333333333331 213, 273.9166666666667 259, 346 259 C 418.0833333333333 259, 446.9166666666667 213, 519 213 C 591.0833333333334 213, 619.9166666666666 259, 692 259 L 528 236 L 528 388 Z"></path>
<path fill="#007373" stroke="#007373" d="M -0 388 L 0 244 C 72.08333333333333 244, 100.91666666666667 221, 173 221 C 245.08333333333331 221, 273.9166666666667 267, 346 267 C 418.0833333333333 267, 446.9166666666667 221, 519 221 C 591.0833333333334 221, 619.9166666666666 267, 692 267 L 528 244 L 528 388 Z"></path>
<path fill="#006f71" stroke="#006f71" d="M -0 388 L 0 253 C 72.08333333333333 253, 100.91666666666667 230, 173 230 C 245.08333333333331 230, 273.9166666666667 276, 346 276 C 418.0833333333333 276, 446.9166666666667 230, 519 230 C 591.0833333333334 230, 619.9166666666666 276, 692 276 L 528 253 L 528 388 Z"></path>
<path fill="#006b6e" stroke="#006b6e" d="M -0 388 L 0 261 C 72.08333333333333 261, 100.91666666666667 238, 173 238 C 245.08333333333331 238, 273.9166666666667 284, 346 284 C 418.0833333333333 284, 446.9166666666667 238, 519 238 C 591.0833333333334 238, 619.9166666666666 284, 692 284 L 528 261 L 528 388 Z"></path>
<path fill="#00676c" stroke="#00676c" d="M -0 388 L 0 269 C 72.08333333333333 269, 100.91666666666667 246, 173 246 C 245.08333333333331 246, 273.9166666666667 292, 346 292 C 418.0833333333333 292, 446.9166666666667 246, 519 246 C 591.0833333333334 246, 619.9166666666666 292, 692 292 L 528 269 L 528 388 Z"></path>
<path fill="#006369" stroke="#006369" d="M -0 388 L 0 278 C 72.08333333333333 278, 100.91666666666667 255, 173 255 C 245.08333333333331 255, 273.9166666666667 301, 346 301 C 418.0833333333333 301, 446.9166666666667 255, 519 255 C 591.0833333333334 255, 619.9166666666666 301, 692 301 L 528 278 L 528 388 Z"></path>
<path fill="#005f66" stroke="#005f66" d="M -0 388 L 0 286 C 72.08333333333333 286, 100.91666666666667 263, 173 263 C 245.08333333333331 263, 273.9166666666667 309, 346 309 C 418.0833333333333 309, 446.9166666666667 263, 519 263 C 591.0833333333334 263, 619.9166666666666 309, 692 309 L 528 286 L 528 388 Z"></path>
<path fill="#005b63" stroke="#005b63" d="M -0 388 L 0 295 C 72.08333333333333 295, 100.91666666666667 272, 173 272 C 245.08333333333331 272, 273.9166666666667 318, 346 318 C 418.0833333333333 318, 446.9166666666667 272, 519 272 C 591.0833333333334 272, 619.9166666666666 318, 692 318 L 528 295 L 528 388 Z"></path>
<path fill="#005860" stroke="#005860" d="M -0 388 L 0 303 C 72.08333333333333 303, 100.91666666666667 280, 173 280 C 245.08333333333331 280, 273.9166666666667 326, 346 326 C 418.0833333333333 326, 446.9166666666667 280, 519 280 C 591.0833333333334 280, 619.9166666666666 326, 692 326 L 528 303 L 528 388 Z"></path>
<path fill="#00545d" stroke="#00545d" d="M -0 388 L 0 312 C 72.08333333333333 312, 100.91666666666667 289, 173 289 C 245.08333333333331 289, 273.9166666666667 335, 346 335 C 418.0833333333333 335, 446.9166666666667 289, 519 289 C 591.0833333333334 289, 619.9166666666666 335, 692 335 L 528 312 L 528 388 Z"></path>
<path fill="#00505a" stroke="#00505a" d="M -0 388 L 0 320 C 72.08333333333333 320, 100.91666666666667 297, 173 297 C 245.08333333333331 297, 273.9166666666667 343, 346 343 C 418.0833333333333 343, 446.9166666666667 297, 519 297 C 591.0833333333334 297, 619.9166666666666 343, 692 343 L 528 320 L 528 388 Z"></path>
<path fill="#004c57" stroke="#004c57" d="M -0 388 L 0 328 C 72.08333333333333 328, 100.91666666666667 305, 173 305 C 245.08333333333331 305, 273.9166666666667 351, 346 351 C 418.0833333333333 351, 446.9166666666667 305, 519 305 C 591.0833333333334 305, 619.9166666666666 351, 692 351 L 528 328 L 528 388 Z"></path>
<path fill="#004953" stroke="#004953" d="M -0 388 L 0 337 C 72.08333333333333 337, 100.91666666666667 314, 173 314 C 245.08333333333331 314, 273.9166666666667 360, 346 360 C 418.0833333333333 360, 446.9166666666667 314, 519 314 C 591.0833333333334 314, 619.9166666666666 360, 692 360 L 528 337 L 528 388 Z"></path>
<path fill="#004550" stroke="#004550" d="M -0 388 L 0 345 C 72.08333333333333 345, 100.91666666666667 322, 173 322 C 245.08333333333331 322, 273.9166666666667 368, 346 368 C 418.0833333333333 368, 446.9166666666667 322, 519 322 C 591.0833333333334 322, 619.9166666666666 368, 692 368 L 528 345 L 528 388 Z"></path>
<path fill="#00414c" stroke="#00414c" d="M -0 388 L 0 354 C 72.08333333333333 354, 100.91666666666667 331, 173 331 C 245.08333333333331 331, 273.9166666666667 377, 346 377 C 418.0833333333333 377, 446.9166666666667 331, 519 331 C 591.0833333333334 331, 619.9166666666666 377, 692 377 L 528 354 L 528 388 Z"></path>
<path fill="#003e48" stroke="#003e48" d="M -0 388 L 0 362 C 72.08333333333333 362, 100.91666666666667 339, 173 339 C 245.08333333333331 339, 273.9166666666667 385, 346 385 C 418.0833333333333 385, 446.9166666666667 339, 519 339 C 591.0833333333334 339, 619.9166666666666 385, 692 385 L 528 362 L 528 388 Z"></path>
<path fill="#023a45" stroke="#023a45" d="M -0 388 L 0 371 C 72.08333333333333 371, 100.91666666666667 348, 173 348 C 245.08333333333331 348, 273.9166666666667 394, 346 394 C 418.0833333333333 394, 446.9166666666667 348, 519 348 C 591.0833333333334 348, 619.9166666666666 394, 692 394 L 528 371 L 528 388 Z"></path>
<path fill="#063641" stroke="#063641" d="M -0 388 L 0 379 C 72.08333333333333 379, 100.91666666666667 356, 173 356 C 245.08333333333331 356, 273.9166666666667 402, 346 402 C 418.0833333333333 402, 446.9166666666667 356, 519 356 C 591.0833333333334 356, 619.9166666666666 402, 692 402 L 528 379 L 528 388 Z"></path>
<path fill="#0a333d" stroke="#0a333d" d="M -0 388 L 0 388 C 72.08333333333333 388, 100.91666666666667 365, 173 365 C 245.08333333333331 365, 273.9166666666667 411, 346 411 C 418.0833333333333 411, 446.9166666666667 365, 519 365 C 591.0833333333334 365, 619.9166666666666 411, 692 411 L 528 388 L 528 388 Z"></path>
</svg>